<?xml version="1.0" standalone="no"?><!DOCTYPE svg PUBLIC "-//W3C//DTD SVG 1.1//EN" "http://www.w3.org/Graphics/SVG/1.1/DTD/svg11.dtd"><svg t="1661388323392" class="icon" viewBox="0 0 1024 1024" version="1.1" xmlns="http://www.w3.org/2000/svg" p-id="1676" width="24" height="24" xmlns:xlink="http://www.w3.org/1999/xlink"><defs><style type="text/css">@font-face { font-family: feedback-iconfont; src: url("//at.alicdn.com/t/font_1031158_u69w8yhxdu.woff2?t=1630033759944") format("woff2"), url("//at.alicdn.com/t/font_1031158_u69w8yhxdu.woff?t=1630033759944") format("woff"), url("//at.alicdn.com/t/font_1031158_u69w8yhxdu.ttf?t=1630033759944") format("truetype"); }
</style></defs><path d="M144 224c-17.67299999 0-32-14.327-31.99999999-32 0-17.67299999 14.327-32 31.99999999-32L880 160c17.67299999 0 32 14.327 31.99999999 32 0 17.67299999-14.327 32-31.99999999 32l-736 0zM448 437.00000001c-17.67299999 0-32-14.327-32-32.00000001 0-17.67299999 14.327-32 32-32L880 373c17.67299999 0 32 14.327 32 32 0 17.67299999-14.327 32-32 32l-432 1e-8z m-320.65700001 205.06199999c-5.899 4.6-14.403 0.498-14.40299999-6.90000001l0-246.17799998c0-7.4 8.603-11.495 14.403-6.89600001L283.628 505.174c4.496 3.5 4.496 10.297 0 13.796zM448 651c-17.67299999 0-32-14.327-32-32 0-17.67299999 14.327-32 32-32.00000001L880 587c17.67299999 0 32 14.327 32 32 0 17.67299999-14.327 32-32 32l-432 0z m-304 213c-17.67299999 0-32-14.327-31.99999999-32 0-17.67299999 14.327-32 31.99999999-32L880 800c17.67299999 0 32 14.327 31.99999999 32 0 17.67299999-14.327 32-31.99999999 32l-736 0z" p-id="1677" fill="#e6e6e6"></path></svg>