<?xml version="1.0" standalone="no"?><!DOCTYPE svg PUBLIC "-//W3C//DTD SVG 1.1//EN" "http://www.w3.org/Graphics/SVG/1.1/DTD/svg11.dtd"><svg t="1661388300097" class="icon" viewBox="0 0 1024 1024" version="1.1" xmlns="http://www.w3.org/2000/svg" p-id="1378" width="24" height="24" xmlns:xlink="http://www.w3.org/1999/xlink"><defs><style type="text/css">@font-face { font-family: feedback-iconfont; src: url("//at.alicdn.com/t/font_1031158_u69w8yhxdu.woff2?t=1630033759944") format("woff2"), url("//at.alicdn.com/t/font_1031158_u69w8yhxdu.woff?t=1630033759944") format("woff"), url("//at.alicdn.com/t/font_1031158_u69w8yhxdu.ttf?t=1630033759944") format("truetype"); }
</style></defs><path d="M880 800c17.673 0 32 14.327 32 32 0 17.673-14.327 32-32 32H144c-17.673 0-32-14.327-32-32 0-17.673 14.327-32 32-32h736zM576 587c17.673 0 32 14.327 32 32 0 17.673-14.327 32-32 32H144c-17.673 0-32-14.327-32-32 0-17.673 14.327-32 32-32h432z m320.657-205.062c5.899-4.6 14.403-0.498 14.403 6.9v246.178c0 7.4-8.603 11.495-14.403 6.896L740.372 518.826c-4.496-3.5-4.496-10.297 0-13.796zM576 373c17.673 0 32 14.327 32 32 0 17.673-14.327 32-32 32H144c-17.673 0-32-14.327-32-32 0-17.673 14.327-32 32-32h432z m304-213c17.673 0 32 14.327 32 32 0 17.673-14.327 32-32 32H144c-17.673 0-32-14.327-32-32 0-17.673 14.327-32 32-32h736z" p-id="1379" fill="#e6e6e6"></path></svg>